<svg
      xmlns="http://www.w3.org/2000/svg"
      width="120"
      height="40"
      viewBox="0 0 936 266"
    >
      <g fill="none" fillRule="evenodd">
        <path
          fill="#FFF"
          d="M174.522 177.753a36.365 36.365 0 007.952 19.101c6.056 7.35 15.006 11.39 25.243 11.39 10.237 0 19.102-4.04 25.18-11.39 5.412-6.523 8.298-14.856 8.298-23.99v-91.26a37.238 37.238 0 00-6.254-20.976 5.49 5.49 0 01.184-6.367 32.54 32.54 0 006.99-20.254 33.514 33.514 0 00-57.193-23.685h-.035a33.03 33.03 0 00-9.764 23.685 32.487 32.487 0 006.106 19.235 5.384 5.384 0 01-.085 6.304 37.702 37.702 0 00-6.94 22.072v86.754a50.54 50.54 0 01.452 6.445c0 .99-.063 2.002-.134 2.964M382.543 61.986c-11.687-11.368-27.075-17.127-45.696-17.127-10.259 0-19.47 1.818-27.28 5.377a5.531 5.531 0 01-4.833-.163 34.664 34.664 0 00-16.4-3.827c-10.215 0-19.15 4.046-25.264 11.44-5.419 6.536-8.277 14.792-8.277 23.946v91.26c0 9.148 2.83 17.418 8.292 24.005 6.02 7.343 15.034 11.382 25.214 11.382 10.181 0 19.201-4.04 25.279-11.425 5.37-6.544 8.2-14.814 8.2-23.961V113l.198-2.263c.183-2.957 2.398-4.754 5.37-4.641l.778.05c2.83.155 4.952 2.001 5.1 4.81l.12 2.044v59.886c0 9.133 2.83 17.417 8.264 23.961 6.07 7.386 15.041 11.425 25.236 11.425s19.173-4.04 25.229-11.382c5.426-6.587 8.277-14.857 8.277-24.004V141.34c-.488-4.519-.74-9.06-.757-13.604.019-4.225.271-8.446.757-12.642v-7.747c0-18.634-6.013-33.88-17.807-45.362m55.488 133.157a5.51 5.51 0 011.939 4.167c.003.346-.037.69-.12 1.026a5.225 5.225 0 01-3.595 4.153c-12.31 4.11-21.224 16.674-21.224 29.917 0 16.937 13.513 31.206 29.473 31.206H482.9c24.479 0 44.239-6.53 58.72-19.434 17.518-15.74 23.75-44.166 23.75-65.573V81.632c0-9.119-2.829-17.41-8.234-23.96-6.07-7.373-15.02-11.426-25.23-11.426a34.618 34.618 0 00-17.156 4.244 5.361 5.361 0 01-5.108.12c-7.527-3.784-16.364-5.744-26.219-5.744-22.2 0-41.197 9.339-54.83 27.032v.056c-9.678 12.678-15.487 27.386-17.369 43.798v25.122c1.783 15.79 6.665 29.614 14.858 41.152a65.33 65.33 0 0011.949 13.123m-307.805-52.464H103.95a5.412 5.412 0 01-4.839-2.964 5.478 5.478 0 01.418-5.66s51.32-71.098 51.285-71.063c5.434-7.683 8.193-15.967 8.193-24.605 0-10.555-4.323-19.674-12.112-25.666-6.601-5.115-14.985-7.783-24.267-7.783H35.544a32.856 32.856 0 00-23.057 9.198 31.571 31.571 0 00-9.94 23.438c0 9.465 3.743 17.89 10.556 23.621 6.112 5.228 13.895 7.952 22.44 7.952h19.853a5.512 5.512 0 014.457 8.666s-52 72.556-51.979 72.506a42.695 42.695 0 00-4.089 7.153l-.156.268a40.33 40.33 0 00-3.438 15.72c0 10.435 4.323 19.504 12.197 25.602 6.686 5.15 15.013 7.875 24.146 7.875h93.692a33.968 33.968 0 0022.725-8.568 30.66 30.66 0 0010.612-20.162 51.388 51.388 0 01-.276-5.292v-4.011c-2.42-16.08-14.815-26.176-33.06-26.176"
        ></path>
        <path
          fill="#EE2B74"
          d="M444.519 249.248c-7.132 0-13.082-7.124-13.082-14.857 0-7.732 6.997-14.814 12.735-14.814H482.9c8.737 0 18.677-2.433 23.976-7.194 5.3-4.762 7.952-18.444 7.952-27.067v-8.072c-7.735 10.682-19.46 16.033-35.176 16.052-17.276 0-30.667-6.89-40.17-20.672-8.434-11.857-12.641-26.822-12.622-44.894 0-17.73 4.92-32.996 14.758-45.8 10.598-13.8 24.545-20.698 41.84-20.693 14.398 0 24.897 5.213 31.37 15.599 2.052-9.48 7.757-14.222 17.114-14.227 5.384 0 9.6 1.84 12.58 5.497 2.978 3.657 4.513 8.164 4.513 13.526v98.972c0 19.943-6.113 42.397-18.267 53.349-11.603 10.272-27.592 15.295-47.868 15.295h-38.381zm70.323-121.044c0-9.303-2.122-17.312-6.416-23.905-4.896-7.697-11.822-11.623-20.701-11.623-8.384 0-15.077 3.692-19.958 11.156-4.436 6.6-6.65 14.283-6.65 22.95 0 9.295 2.037 17.176 6.176 23.67 4.768 7.547 11.579 11.32 20.432 11.32 8.879 0 15.805-3.537 20.7-10.612 4.28-6.133 6.417-13.774 6.417-22.956z"
        ></path>
        <path
          fill="#F47B20"
          d="M271.192 172.893v-91.26c0-5.391 1.507-9.9 4.521-13.527 3-3.658 7.195-5.497 12.622-5.497 8.872 0 14.107 4.153 15.72 12.352 6.778-9.119 17.722-13.724 32.799-13.724 14.286 0 25.71 4.145 34.27 12.437 8.547 8.354 12.862 19.582 12.862 33.674v65.545c0 5.412-1.542 9.904-4.535 13.576-2.992 3.671-7.209 5.447-12.607 5.447s-9.558-1.797-12.586-5.447c-3.028-3.65-4.514-8.192-4.514-13.576v-59.9c0-7.074-1.98-12.797-5.822-16.978-3.842-4.181-9.431-6.325-16.577-6.325-6.827 0-12.21 2.207-16.095 6.586-3.884 4.38-5.844 9.905-5.844 16.71v59.9c0 5.384-1.471 9.904-4.535 13.576-3.063 3.671-7.195 5.447-12.572 5.447-5.377 0-9.607-1.797-12.586-5.447-2.978-3.65-4.52-8.192-4.52-13.576"
        ></path>
        <path
          fill="#49A942"
          d="M190.582 172.893v-91.26c0-5.391 1.478-9.905 4.514-13.527 3.035-3.622 7.188-5.497 12.621-5.497 5.433 0 9.565 1.846 12.558 5.497 2.992 3.65 4.535 8.136 4.535 13.526v91.26c0 5.378-1.512 9.903-4.535 13.577-2.993 3.65-7.202 5.454-12.558 5.454s-9.615-1.804-12.621-5.454c-3.007-3.65-4.514-8.2-4.514-13.576m.898-138.879a17.078 17.078 0 0113.792-16.701 17.078 17.078 0 0112.757 30.97 17.08 17.08 0 01-21.554-2.143 16.476 16.476 0 01-4.995-12.126"
        ></path>
        <path
          fill="#009DDC"
          d="M61.275 159.048h68.951c11.426 0 17.136 5.306 17.136 15.74a14.44 14.44 0 01-5.158 11.27 17.814 17.814 0 01-11.942 4.507h-93.72c-5.57 0-10.287-1.502-14.15-4.506-3.891-3.021-5.802-7.23-5.802-12.607a23.229 23.229 0 012.123-9.268 32.35 32.35 0 012.618-4.513L97.909 52.726H35.544c-4.712 0-8.688-1.33-11.857-4.068-3.17-2.738-4.748-6.402-4.748-11.128a15.145 15.145 0 014.889-11.567 16.307 16.307 0 0111.716-4.704h87.084c5.66 0 10.492 1.478 14.27 4.414 3.778 2.936 5.66 7.16 5.66 12.734 0 5.242-1.712 10.265-5.158 15.19l-76.125 105.45z"
        ></path>
        <path
          fill="#FFF"
          fillRule="nonzero"
          d="M625.472 107.242a6.52 6.52 0 012.179-5.122 8.693 8.693 0 015.546-1.931c2.236 0 3.941.643 5.115 1.93 1.415 1.345 2.123 3.276 2.123 5.795v2.936h.332c5.66-7.33 13.525-10.994 23.595-10.994 10.291.335 18.489 5.483 24.592 15.444 4.198-5.759 8.591-9.768 13.18-12.027a34.379 34.379 0 0131.314.672 32.881 32.881 0 0111.32 11.503c2.744 4.98 4.117 10.829 4.117 17.545v53.13c0 2.357-.729 4.15-2.186 5.376a8.23 8.23 0 01-5.54 2.016c-1.9 0-3.732-.72-5.122-2.016a6.85 6.85 0 01-2.264-5.377v-52.018a24.245 24.245 0 00-2.603-11.581 15.382 15.382 0 00-6.707-7.21 20.271 20.271 0 00-9.735-2.39c-5.66 0-10.473 1.65-14.44 4.952-3.806 3.471-5.71 8.871-5.71 16.2v52.04a6.45 6.45 0 01-2.179 5.207 9.197 9.197 0 01-5.546 1.846 8.098 8.098 0 01-5.115-1.846c-1.514-1.174-2.271-2.91-2.271-5.207v-51.34c0-7.328-1.847-12.842-5.54-16.54-3.693-3.522-8.336-5.284-13.93-5.284a26.172 26.172 0 00-9.742 2.179 15.972 15.972 0 00-7.075 6.55c-1.854 2.802-2.778 6.575-2.773 11.32v53.13c0 2.41-.755 4.201-2.264 5.376a7.726 7.726 0 01-5.292 2.017 8.044 8.044 0 01-5.207-2.017 7.15 7.15 0 01-2.18-5.377l.008-78.887zm158.653 73.864v40.608c0 2.971-.672 5.214-2.017 6.728a7.076 7.076 0 01-5.37 2.44 6.994 6.994 0 01-5.284-2.603c-1.514-1.457-2.271-3.528-2.271-6.211V107.914c0-2.519.707-4.504 2.122-5.957a7.146 7.146 0 015.122-2.123 8.063 8.063 0 015.54 2.123c1.448 1.288 2.174 3.163 2.179 5.624v4.698h.34c4.08-8.112 11.718-12.253 22.915-12.423a39.046 39.046 0 0116.456 3.276 36.607 36.607 0 0112.926 9.65 40.979 40.979 0 018.228 14.608 57.507 57.507 0 012.936 18.719c0 9.008-1.595 17.038-4.783 24.089-3.302 7.272-7.89 12.953-13.768 17.042a34.332 34.332 0 01-20.318 6.296c-10.188 0-18.386-4.14-24.593-12.423l-.36-.007zm48.858-34.374a49.592 49.592 0 00-2.603-16.272 28.526 28.526 0 00-7.889-12.408c-3.589-3.24-8.07-4.945-13.442-5.115-6.325 0-11.416 1.594-15.274 4.782a26.872 26.872 0 00-8.398 12.571 51.926 51.926 0 00-2.766 16.095c0 10.456 2.294 18.71 6.883 24.76 4.642 6.264 10.6 9.478 17.879 9.643a5.65 5.65 0 011.344-.332 22.89 22.89 0 0013.095-5.03c3.524-2.83 6.266-6.77 8.228-11.822 1.778-4.594 2.76-10.215 2.943-16.865v-.007zm32.488-49.982a33.257 33.257 0 015.37-14.608 30.433 30.433 0 0111.836-9.82 40.271 40.271 0 0116.873-3.438 30.802 30.802 0 0126.276 16.533 33.742 33.742 0 013.609 15.444c0 5.036-1.239 9.995-3.609 14.439a32.838 32.838 0 01-10.661 11.418c6.83 2.018 11.977 5.74 15.444 11.163a30.101 30.101 0 013.863 8.49 37.474 37.474 0 011.344 10.201 71.064 71.064 0 01-.707 8.73 37.26 37.26 0 01-6.212 13.93 33.92 33.92 0 01-13.258 10.328c-5.707 2.632-12.452 3.948-20.234 3.948a35.29 35.29 0 01-15.402-3.276 37.817 37.817 0 01-11.794-8.73 28.788 28.788 0 01-6.714-12.175c-.057-.332-.1-.63-.127-.877-.029-.247-.1-.658-.213-1.217a25.43 25.43 0 01-.12-1.216 4.361 4.361 0 00-.212-1.055c.154-2.06.912-4.028 2.179-5.66a6.751 6.751 0 015.2-2.433c3.57 0 6.028 2.24 7.372 6.721 3.24 10.07 10.171 15.804 20.793 17.205 4.009-.18 7.93-1.24 11.482-3.106a23.735 23.735 0 008.554-7.725 19.809 19.809 0 003.431-10.661c0-16.39-6.89-24.586-20.673-24.591-6.254 0-9.63-2.014-10.13-6.042 0-2.186.707-3.664 2.178-4.45a39.15 39.15 0 018.313-2.942c4.811-1.283 8.532-3.689 11.164-7.216 2.406-3.358 3.608-8.339 3.608-14.942a20.053 20.053 0 00-2.766-8.984 17.097 17.097 0 00-6.091-6.127 16.495 16.495 0 00-8.349-2.122 17.69 17.69 0 00-12.027 4.28c-3.193 2.83-5.04 7.362-5.54 13.597a7.484 7.484 0 01-7.074 7.725 6.761 6.761 0 01-5.115-3.105c-1.224-1.804-1.861-4.386-1.861-7.634z"
        ></path>
      </g>
    </svg>
